<svg xmlns="http://www.w3.org/2000/svg" width="1024" height="1024" viewBox="0 0 200 200"><rect x="0" y="0" width="200" height="200" rx="45" fill="#F4EFE3"></rect><g transform="rotate(-7 100 100) translate(14 2)"><path d="M 66 158 C 60 148 59 138 64 130 C 70 122 78 118 84 114 C 74 114 58 113 48 110 L 42 105 C 36 104 32 101 31 96 C 29 90 30 84 34 80 C 44 64 55 53 70 46 C 74 44 78 43 82 42 L 86 24 C 87 20 91 20 92 24 L 96 36 C 97 38 99 38 100 36 L 104 22 C 105 18 109 18 110 22 L 114 40 C 122 46 128 54 132 64 L 126 68 C 133 78 137 88 139 100 L 133 103 C 139 116 141 136 141 158 Z" fill="#1C1710"></path><circle cx="38" cy="89" r="2.8" fill="#F4EFE3"></circle><rect x="-4.5" y="-4.5" width="9" height="9" rx="2" transform="translate(68,60) rotate(45)" fill="#F4EFE3"></rect><rect x="56" y="166" width="96" height="11" rx="5.5" fill="#9E2B25"></rect></g></svg>